<mxfile host="Electron" agent="Mozilla/5.0 (Windows NT 10.0; Win64; x64) AppleWebKit/537.36 (KHTML, like Gecko) draw.io/26.0.16 Chrome/132.0.6834.196 Electron/34.2.0 Safari/537.36" version="26.0.16">
  <diagram name="Page-1" id="dPSmptOxwNc39SZAluuu">
    <mxGraphModel dx="1434" dy="836" grid="1" gridSize="10" guides="1" tooltips="1" connect="1" arrows="1" fold="1" page="1" pageScale="1" pageWidth="850" pageHeight="1100" math="0" shadow="0">
      <root>
        <mxCell id="0" />
        <mxCell id="1" parent="0" />
        <mxCell id="WiW8Op58u_-MWI8aXkOO-41" value="" style="rounded=1;whiteSpace=wrap;html=1;fillColor=none;" vertex="1" parent="1">
          <mxGeometry x="260" y="320" width="190" height="390" as="geometry" />
        </mxCell>
        <mxCell id="WiW8Op58u_-MWI8aXkOO-1" value="" style="rounded=0;whiteSpace=wrap;html=1;rotation=-90;fillColor=none;dashed=1;dashPattern=1 2;" vertex="1" parent="1">
          <mxGeometry x="-105" y="405" width="445" height="175" as="geometry" />
        </mxCell>
        <mxCell id="WiW8Op58u_-MWI8aXkOO-2" value="&lt;font style=&quot;font-size: 24px;&quot;&gt;Sources&lt;/font&gt;" style="whiteSpace=wrap;html=1;aspect=fixed;strokeColor=none;" vertex="1" parent="1">
          <mxGeometry x="85.15" y="225" width="60" height="60" as="geometry" />
        </mxCell>
        <mxCell id="WiW8Op58u_-MWI8aXkOO-5" value="" style="rounded=0;whiteSpace=wrap;html=1;rotation=-90;fillColor=none;dashed=1;dashPattern=1 2;" vertex="1" parent="1">
          <mxGeometry x="890" y="410" width="445" height="165" as="geometry" />
        </mxCell>
        <mxCell id="WiW8Op58u_-MWI8aXkOO-6" value="&lt;font style=&quot;font-size: 24px;&quot;&gt;Consume&lt;/font&gt;" style="whiteSpace=wrap;html=1;aspect=fixed;strokeColor=none;" vertex="1" parent="1">
          <mxGeometry x="1080" y="225" width="60" height="60" as="geometry" />
        </mxCell>
        <mxCell id="WiW8Op58u_-MWI8aXkOO-7" value="" style="rounded=0;whiteSpace=wrap;html=1;rotation=-90;fillColor=none;dashed=1;dashPattern=1 2;" vertex="1" parent="1">
          <mxGeometry x="390" y="120" width="445" height="765" as="geometry" />
        </mxCell>
        <mxCell id="WiW8Op58u_-MWI8aXkOO-8" value="&lt;font style=&quot;font-size: 24px;&quot;&gt;Data Warehouse&lt;/font&gt;" style="whiteSpace=wrap;html=1;aspect=fixed;strokeColor=none;" vertex="1" parent="1">
          <mxGeometry x="607.5" y="232.5" width="45" height="45" as="geometry" />
        </mxCell>
        <mxCell id="WiW8Op58u_-MWI8aXkOO-10" value="Bronze Layer" style="rounded=1;whiteSpace=wrap;html=1;fillColor=#ffe6cc;strokeColor=#d79b00;fontStyle=1" vertex="1" parent="1">
          <mxGeometry x="310" y="290" width="90" height="30" as="geometry" />
        </mxCell>
        <mxCell id="WiW8Op58u_-MWI8aXkOO-11" value="" style="rounded=1;whiteSpace=wrap;html=1;fillColor=none;strokeColor=none;" vertex="1" parent="1">
          <mxGeometry x="240" y="330" width="90" height="350" as="geometry" />
        </mxCell>
        <mxCell id="WiW8Op58u_-MWI8aXkOO-12" value="Silver Layer" style="rounded=1;whiteSpace=wrap;html=1;fillColor=#dae8fc;strokeColor=#6c8ebf;fontStyle=1" vertex="1" parent="1">
          <mxGeometry x="582.5" y="290" width="85" height="30" as="geometry" />
        </mxCell>
        <mxCell id="WiW8Op58u_-MWI8aXkOO-13" value="" style="rounded=1;whiteSpace=wrap;html=1;fillColor=none;" vertex="1" parent="1">
          <mxGeometry x="530" y="320" width="190" height="390" as="geometry" />
        </mxCell>
        <mxCell id="WiW8Op58u_-MWI8aXkOO-14" value="Gold Layer" style="rounded=1;whiteSpace=wrap;html=1;fillColor=#f8cecc;strokeColor=#b85450;fontStyle=1" vertex="1" parent="1">
          <mxGeometry x="840" y="290" width="80" height="27.5" as="geometry" />
        </mxCell>
        <mxCell id="WiW8Op58u_-MWI8aXkOO-15" value="" style="rounded=1;whiteSpace=wrap;html=1;fillColor=none;" vertex="1" parent="1">
          <mxGeometry x="790" y="317.5" width="190" height="390" as="geometry" />
        </mxCell>
        <mxCell id="WiW8Op58u_-MWI8aXkOO-23" value="" style="shape=singleArrow;whiteSpace=wrap;html=1;fillColor=#0050ef;strokeColor=#001DBC;fontColor=#ffffff;" vertex="1" parent="1">
          <mxGeometry x="720" y="455" width="75" height="40" as="geometry" />
        </mxCell>
        <mxCell id="WiW8Op58u_-MWI8aXkOO-26" value="" style="shape=singleArrow;whiteSpace=wrap;html=1;fillColor=#0050ef;strokeColor=#001DBC;fontColor=#ffffff;" vertex="1" parent="1">
          <mxGeometry x="185" y="460" width="75" height="40" as="geometry" />
        </mxCell>
        <mxCell id="WiW8Op58u_-MWI8aXkOO-27" value="" style="shape=singleArrow;whiteSpace=wrap;html=1;fillColor=#0050ef;strokeColor=#001DBC;fontColor=#ffffff;" vertex="1" parent="1">
          <mxGeometry x="980" y="455" width="75" height="40" as="geometry" />
        </mxCell>
        <mxCell id="WiW8Op58u_-MWI8aXkOO-28" value="" style="sketch=0;pointerEvents=1;shadow=0;dashed=0;html=1;strokeColor=#B09500;labelPosition=center;verticalLabelPosition=bottom;verticalAlign=top;outlineConnect=0;align=center;shape=mxgraph.office.concepts.folder;fillColor=#e3c800;fontColor=#000000;" vertex="1" parent="1">
          <mxGeometry x="70" y="370" width="50" height="45" as="geometry" />
        </mxCell>
        <mxCell id="WiW8Op58u_-MWI8aXkOO-29" value="" style="sketch=0;pointerEvents=1;shadow=0;dashed=0;html=1;strokeColor=#B09500;labelPosition=center;verticalLabelPosition=bottom;verticalAlign=top;outlineConnect=0;align=center;shape=mxgraph.office.concepts.folder;fillColor=#e3c800;fontColor=#000000;" vertex="1" parent="1">
          <mxGeometry x="70" y="480" width="50" height="45" as="geometry" />
        </mxCell>
        <mxCell id="WiW8Op58u_-MWI8aXkOO-30" value="ERP" style="rounded=0;whiteSpace=wrap;html=1;" vertex="1" parent="1">
          <mxGeometry x="70" y="415" width="60" height="25" as="geometry" />
        </mxCell>
        <mxCell id="WiW8Op58u_-MWI8aXkOO-31" value="CRM" style="rounded=0;whiteSpace=wrap;html=1;" vertex="1" parent="1">
          <mxGeometry x="70" y="525" width="60" height="25" as="geometry" />
        </mxCell>
        <mxCell id="WiW8Op58u_-MWI8aXkOO-32" value="" style="image;aspect=fixed;html=1;points=[];align=center;fontSize=12;image=img/lib/azure2/general/Media_File.svg;" vertex="1" parent="1">
          <mxGeometry x="70" y="380" width="20.31" height="25" as="geometry" />
        </mxCell>
        <mxCell id="WiW8Op58u_-MWI8aXkOO-33" value="" style="image;aspect=fixed;html=1;points=[];align=center;fontSize=12;image=img/lib/azure2/general/Media_File.svg;" vertex="1" parent="1">
          <mxGeometry x="70" y="490" width="20.31" height="25" as="geometry" />
        </mxCell>
        <mxCell id="WiW8Op58u_-MWI8aXkOO-34" value="OBJECT TYPE: CSV FILES" style="rounded=0;whiteSpace=wrap;html=1;" vertex="1" parent="1">
          <mxGeometry x="50" y="600" width="110" height="40" as="geometry" />
        </mxCell>
        <mxCell id="WiW8Op58u_-MWI8aXkOO-35" value="" style="html=1;verticalLabelPosition=bottom;align=center;labelBackgroundColor=#ffffff;verticalAlign=top;strokeWidth=2;strokeColor=#b85450;shadow=0;dashed=0;shape=mxgraph.ios7.icons.data;fillColor=#f8cecc;" vertex="1" parent="1">
          <mxGeometry x="865" y="357.5" width="55" height="70" as="geometry" />
        </mxCell>
        <mxCell id="WiW8Op58u_-MWI8aXkOO-36" value="" style="html=1;verticalLabelPosition=bottom;align=center;labelBackgroundColor=#ffffff;verticalAlign=top;strokeWidth=2;strokeColor=#6c8ebf;shadow=0;dashed=0;shape=mxgraph.ios7.icons.data;fillColor=#dae8fc;" vertex="1" parent="1">
          <mxGeometry x="595" y="357.5" width="55" height="70" as="geometry" />
        </mxCell>
        <mxCell id="WiW8Op58u_-MWI8aXkOO-37" value="" style="html=1;verticalLabelPosition=bottom;align=center;labelBackgroundColor=#ffffff;verticalAlign=top;strokeWidth=2;strokeColor=#d6b656;shadow=0;dashed=0;shape=mxgraph.ios7.icons.data;fillColor=#fff2cc;" vertex="1" parent="1">
          <mxGeometry x="320" y="357.5" width="55" height="70" as="geometry" />
        </mxCell>
        <mxCell id="WiW8Op58u_-MWI8aXkOO-38" value="Raw Data" style="rounded=0;whiteSpace=wrap;html=1;strokeColor=none;fontStyle=1" vertex="1" parent="1">
          <mxGeometry x="310" y="427.5" width="60" height="25" as="geometry" />
        </mxCell>
        <mxCell id="WiW8Op58u_-MWI8aXkOO-39" value="Cleaned Data" style="rounded=0;whiteSpace=wrap;html=1;strokeColor=none;fontStyle=1" vertex="1" parent="1">
          <mxGeometry x="582.5" y="427.5" width="77.5" height="25" as="geometry" />
        </mxCell>
        <mxCell id="WiW8Op58u_-MWI8aXkOO-40" value="Business Ready Data" style="rounded=0;whiteSpace=wrap;html=1;strokeColor=none;fontStyle=1" vertex="1" parent="1">
          <mxGeometry x="847.5" y="427.5" width="90" height="25" as="geometry" />
        </mxCell>
        <mxCell id="WiW8Op58u_-MWI8aXkOO-42" value="" style="line;strokeWidth=1;rotatable=0;dashed=0;labelPosition=right;align=left;verticalAlign=middle;spacingTop=0;spacingLeft=6;points=[];portConstraint=eastwest;" vertex="1" parent="1">
          <mxGeometry x="30.31" y="565" width="169.69" height="10" as="geometry" />
        </mxCell>
        <mxCell id="WiW8Op58u_-MWI8aXkOO-45" value="" style="line;strokeWidth=1;rotatable=0;dashed=0;labelPosition=right;align=left;verticalAlign=middle;spacingTop=0;spacingLeft=6;points=[];portConstraint=eastwest;" vertex="1" parent="1">
          <mxGeometry x="790" y="480" width="190" height="10" as="geometry" />
        </mxCell>
        <mxCell id="WiW8Op58u_-MWI8aXkOO-46" value="&lt;font&gt;&lt;b style=&quot;&quot;&gt;Object Type:&lt;/b&gt; Tables&lt;/font&gt;&lt;div&gt;&lt;font&gt;&lt;b&gt;Load&lt;/b&gt;:&amp;nbsp;&lt;/font&gt;&lt;/div&gt;&lt;div&gt;&lt;ul&gt;&lt;li&gt;&lt;font&gt;Batch Processing&lt;/font&gt;&lt;/li&gt;&lt;li&gt;&lt;b&gt;&lt;font&gt;Full Load&lt;/font&gt;&lt;/b&gt;&lt;/li&gt;&lt;li&gt;&lt;b&gt;&lt;font&gt;Truncate &amp;amp; Insert&lt;/font&gt;&lt;/b&gt;&lt;/li&gt;&lt;/ul&gt;&lt;/div&gt;&lt;div&gt;&lt;b&gt;&lt;font&gt;No Transformations&lt;/font&gt;&lt;/b&gt;&lt;/div&gt;&lt;div&gt;&lt;b&gt;&lt;font&gt;&lt;br&gt;&lt;/font&gt;&lt;/b&gt;&lt;/div&gt;&lt;div&gt;&lt;font&gt;&lt;b style=&quot;&quot;&gt;Data Model:&lt;/b&gt; None&lt;/font&gt;&lt;/div&gt;" style="rounded=0;whiteSpace=wrap;html=1;fillColor=none;dashed=1;align=left;strokeColor=none;" vertex="1" parent="1">
          <mxGeometry x="277.5" y="557.5" width="140" height="150" as="geometry" />
        </mxCell>
        <mxCell id="WiW8Op58u_-MWI8aXkOO-48" value="" style="line;strokeWidth=1;rotatable=0;dashed=0;labelPosition=right;align=left;verticalAlign=middle;spacingTop=0;spacingLeft=6;points=[];portConstraint=eastwest;" vertex="1" parent="1">
          <mxGeometry x="530" y="470" width="190" height="10" as="geometry" />
        </mxCell>
        <mxCell id="WiW8Op58u_-MWI8aXkOO-49" value="" style="line;strokeWidth=1;rotatable=0;dashed=0;labelPosition=right;align=left;verticalAlign=middle;spacingTop=0;spacingLeft=6;points=[];portConstraint=eastwest;" vertex="1" parent="1">
          <mxGeometry x="260" y="550" width="190" height="10" as="geometry" />
        </mxCell>
        <mxCell id="WiW8Op58u_-MWI8aXkOO-50" value="" style="shape=singleArrow;whiteSpace=wrap;html=1;fillColor=#0050ef;strokeColor=#001DBC;fontColor=#ffffff;" vertex="1" parent="1">
          <mxGeometry x="450" y="455" width="80" height="40" as="geometry" />
        </mxCell>
        <mxCell id="WiW8Op58u_-MWI8aXkOO-53" value="&lt;font&gt;&lt;b style=&quot;&quot;&gt;Object Type:&lt;/b&gt; Tables&lt;/font&gt;&lt;div&gt;&lt;font&gt;&lt;b&gt;Load&lt;/b&gt;:&amp;nbsp;&lt;/font&gt;&lt;/div&gt;&lt;div&gt;&lt;ul&gt;&lt;li&gt;&lt;font&gt;Batch Processing&lt;/font&gt;&lt;/li&gt;&lt;li&gt;&lt;b&gt;&lt;font&gt;Full Load&lt;/font&gt;&lt;/b&gt;&lt;/li&gt;&lt;li&gt;&lt;b&gt;&lt;font&gt;Truncate &amp;amp; Insert&lt;/font&gt;&lt;/b&gt;&lt;/li&gt;&lt;/ul&gt;&lt;/div&gt;&lt;div&gt;&lt;b&gt;&lt;font&gt;Transformations:&lt;/font&gt;&lt;/b&gt;&lt;/div&gt;&lt;div&gt;&lt;ul&gt;&lt;li&gt;&lt;b&gt;&lt;font&gt;Data Cleansing&lt;/font&gt;&lt;/b&gt;&lt;/li&gt;&lt;li&gt;&lt;b&gt;&lt;font&gt;DataStandardization&lt;/font&gt;&lt;/b&gt;&lt;/li&gt;&lt;li&gt;&lt;b&gt;&lt;font&gt;Data Normalization&lt;/font&gt;&lt;/b&gt;&lt;/li&gt;&lt;li&gt;&lt;b&gt;&lt;font&gt;Derived Columns&lt;/font&gt;&lt;/b&gt;&lt;/li&gt;&lt;li&gt;&lt;b&gt;&lt;font&gt;Data Enrichment&lt;/font&gt;&lt;/b&gt;&lt;/li&gt;&lt;/ul&gt;&lt;/div&gt;&lt;div&gt;&lt;b&gt;&lt;font&gt;&lt;br&gt;&lt;/font&gt;&lt;/b&gt;&lt;/div&gt;&lt;div&gt;&lt;font&gt;&lt;b style=&quot;&quot;&gt;Data Model:&lt;/b&gt; None&lt;/font&gt;&lt;/div&gt;" style="rounded=0;whiteSpace=wrap;html=1;fillColor=none;dashed=1;align=left;strokeColor=none;" vertex="1" parent="1">
          <mxGeometry x="555" y="520" width="140" height="150" as="geometry" />
        </mxCell>
        <mxCell id="WiW8Op58u_-MWI8aXkOO-54" value="&lt;font&gt;&lt;b style=&quot;&quot;&gt;Object Type:&lt;/b&gt; Tables&lt;/font&gt;&lt;div&gt;&lt;font&gt;&lt;b&gt;No Load&lt;/b&gt;&lt;/font&gt;&lt;/div&gt;&lt;div&gt;&lt;b&gt;&lt;font&gt;Transformations:&lt;/font&gt;&lt;/b&gt;&lt;/div&gt;&lt;div&gt;&lt;ul&gt;&lt;li&gt;&lt;b&gt;&lt;font&gt;Data Integrations&lt;/font&gt;&lt;/b&gt;&lt;/li&gt;&lt;li&gt;&lt;b&gt;Aggregations&lt;/b&gt;&lt;/li&gt;&lt;li&gt;&lt;b&gt;Business Logics&lt;/b&gt;&lt;/li&gt;&lt;/ul&gt;&lt;/div&gt;&lt;div&gt;&lt;b&gt;&lt;font&gt;&lt;br&gt;&lt;/font&gt;&lt;/b&gt;&lt;/div&gt;&lt;div&gt;&lt;font&gt;&lt;b style=&quot;&quot;&gt;Data Model:&lt;/b&gt;&lt;/font&gt;&lt;/div&gt;&lt;div&gt;&lt;ul&gt;&lt;li&gt;&lt;font&gt;&lt;b style=&quot;&quot;&gt;Star Schema&lt;/b&gt;&lt;/font&gt;&lt;/li&gt;&lt;li&gt;&lt;font&gt;&lt;b style=&quot;&quot;&gt;Flat Table&lt;/b&gt;&lt;/font&gt;&lt;/li&gt;&lt;li&gt;&lt;b&gt;Aggregated Table&lt;/b&gt;&lt;/li&gt;&lt;/ul&gt;&lt;/div&gt;" style="rounded=0;whiteSpace=wrap;html=1;fillColor=none;dashed=1;align=left;strokeColor=none;" vertex="1" parent="1">
          <mxGeometry x="822.5" y="530" width="140" height="150" as="geometry" />
        </mxCell>
        <mxCell id="WiW8Op58u_-MWI8aXkOO-56" value="" style="image;aspect=fixed;html=1;points=[];align=center;fontSize=12;image=img/lib/azure2/power_platform/PowerBI.svg;" vertex="1" parent="1">
          <mxGeometry x="1087" y="312" width="51" height="68" as="geometry" />
        </mxCell>
        <mxCell id="WiW8Op58u_-MWI8aXkOO-57" value="" style="shadow=0;dashed=0;html=1;strokeColor=none;fillColor=#4495D1;labelPosition=center;verticalLabelPosition=bottom;verticalAlign=top;align=center;outlineConnect=0;shape=mxgraph.veeam.magnifying_glass;pointerEvents=1;" vertex="1" parent="1">
          <mxGeometry x="1087" y="455" width="55.2" height="54.4" as="geometry" />
        </mxCell>
        <mxCell id="WiW8Op58u_-MWI8aXkOO-58" value="Power BI" style="rounded=0;whiteSpace=wrap;html=1;strokeColor=none;fillColor=none;fontStyle=1" vertex="1" parent="1">
          <mxGeometry x="1080" y="385" width="80" height="30" as="geometry" />
        </mxCell>
        <mxCell id="WiW8Op58u_-MWI8aXkOO-59" value="Ad-hoc SQL Queries" style="rounded=0;whiteSpace=wrap;html=1;strokeColor=none;fillColor=none;fontStyle=1" vertex="1" parent="1">
          <mxGeometry x="1080" y="515" width="80" height="30" as="geometry" />
        </mxCell>
        <mxCell id="WiW8Op58u_-MWI8aXkOO-65" value="PostgreSQL" style="shape=rect;fillColor=#0F62FE;aspect=fixed;resizable=0;labelPosition=center;verticalLabelPosition=bottom;align=center;verticalAlign=top;strokeColor=none;fontSize=14;" vertex="1" parent="1">
          <mxGeometry x="229.5" y="231" width="48" height="48" as="geometry" />
        </mxCell>
        <mxCell id="WiW8Op58u_-MWI8aXkOO-66" value="" style="fillColor=#ffffff;strokeColor=none;dashed=0;outlineConnect=0;html=1;labelPosition=center;verticalLabelPosition=bottom;verticalAlign=top;part=1;movable=0;resizable=0;rotatable=0;shape=mxgraph.ibm_cloud.database--postgresql" vertex="1" parent="WiW8Op58u_-MWI8aXkOO-65">
          <mxGeometry width="24" height="24" relative="1" as="geometry">
            <mxPoint x="12" y="12" as="offset" />
          </mxGeometry>
        </mxCell>
        <mxCell id="WiW8Op58u_-MWI8aXkOO-67" value="&lt;font style=&quot;font-size: 22px;&quot;&gt;High Level Architecture&lt;/font&gt;" style="whiteSpace=wrap;html=1;aspect=fixed;align=left;fillColor=none;strokeColor=none;rounded=1;fontStyle=1" vertex="1" parent="1">
          <mxGeometry x="40.16" y="80" width="129.84" height="129.84" as="geometry" />
        </mxCell>
      </root>
    </mxGraphModel>
  </diagram>
</mxfile>
